<svg id="Layer_1" xmlns="http://www.w3.org/2000/svg" viewBox="0 0 50 50"><style>.st0{opacity:0.5;} .st1{fill:#D0D2D3;} .st2{fill:#666666;}</style><circle class="st0 st1" cx="25" cy="25" r="2.2"/><circle class="st0 st1" cx="25" cy="20.5" r="1.1"/><circle class="st0 st1" cx="20.8" cy="23.6" r="1.1"/><circle class="st0 st1" cx="29.4" cy="23.6" r="1.1"/><circle class="st0 st1" cx="22.4" cy="28.7" r="1.1"/><circle class="st0 st1" cx="27.7" cy="28.7" r="1.1"/><path class="st2" d="M25 46C13.4 46 4 36.6 4 25S13.4 4 25 4s21 9.4 21 21-9.4 21-21 21zm0-40.4C14.3 5.6 5.6 14.3 5.6 25S14.3 44.4 25 44.4 44.4 35.7 44.4 25 35.7 5.6 25 5.6z"/><path class="st2" d="M22.9 41.7h-.1c-.7-.1-1.4-.2-2.1-.4-.8-.2-1.6-.5-2.3-.8-.4-.2-.6-.6-.4-1 .8-2.1 1.6-4.1 2.6-6 .3-.5.6-1 .9-1.4.3-.3.6-.6 1.1-.9.4-.2.8-.2 1.1 0 .3.2.5.6.5 1v1.2h-.5.5v1.3c-.1 2.4-.3 4.3-.5 6 0 .1 0 .3-.1.4 0 .4-.3.6-.7.6zM19 39.6c.6.3 1.3.5 1.9.6.6.2 1.1.3 1.7.4v-.1c.2-1.7.3-3.5.5-5.9V33v-.9c-.3.2-.6.4-.8.7-.3.3-.5.7-.8 1.2-1 1.8-1.7 3.7-2.5 5.6zm9.6 1.9c-.1 0-.3 0-.4-.1-.3-.2-.3-.5-.3-.6-.4-1.7-.7-3.4-1-5.2-.1-.8-.3-1.5-.4-2.3l-.1-.9v-.1c0-.4.2-.8.5-.9.3-.2.7-.2 1 0 .3.1.5.3.7.5l.1.1c.6.5 1.1 1.1 1.6 1.9 1.2 1.7 2.2 3.5 3.1 5 0 .1.2.3.1.7-.1.3-.4.5-.5.5-1.3.7-2.7 1.2-4.2 1.6.1-.3 0-.2-.2-.2zm-1.1-9.2l.1.9c.1.7.3 1.5.4 2.2.3 1.6.6 3.3.9 4.9 1.2-.3 2.3-.8 3.4-1.3-.8-1.5-1.8-3.1-2.9-4.7-.5-.7-1-1.3-1.5-1.7l-.1-.1s-.2-.1-.3-.2zm0-.1zm-13.4 5.3c-.3 0-.5-.2-.6-.3-1.1-1-2-2.2-2.8-3.5-.1-.1-.2-.3-.1-.6s.3-.4.4-.5c1.5-.9 3.1-1.7 4.6-2.5.7-.4 1.4-.7 2-1.1l.8-.4s.1 0 .1-.1h.1c.4-.1.8 0 1.1.2.3.2.4.6.3 1 0 .3-.1.6-.2.8v.1c-.3.7-.7 1.4-1.3 2.1-1.2 1.6-2.6 3.2-3.8 4.5-.1.1-.3.3-.6.3zm-2.4-4.1c.7 1.1 1.4 2 2.3 2.9 1.1-1.2 2.4-2.7 3.5-4.2.5-.7.9-1.3 1.1-1.9v-.1c.1-.2.1-.3.2-.5l-.7.4c-.7.3-1.4.7-2 1.1-1.4.7-2.9 1.5-4.4 2.3zm25.4 3.1c-.2 0-.3-.1-.5-.2-1.6-1.3-3.4-2.7-5-4.4-.4-.4-.9-1-1.2-1.6l-.3-.9c-.1-.3 0-.7.2-1 .2-.2.5-.4.8-.4.2 0 .3 0 .4.1 2.8.9 5.4 1.9 7.9 3 .2.1.3.2.5.3.5.2.6.6.4 1.1-.3.6-.6 1.1-.9 1.6-.5.8-1 1.5-1.6 2.2-.3 0-.5.2-.7.2zm-6-7.5c.1.3.2.5.3.7.3.5.7 1 1 1.4 1.5 1.5 3.1 2.9 4.6 4.1.5-.6 1-1.2 1.4-1.9.3-.4.5-.8.7-1.3h-.2c-2.5-1.1-5.1-2.1-7.8-3zm-21.9-.2c-.4 0-.7-.2-.8-.7-.2-1-.3-2-.3-3.2 0-.3 0-.8.1-1.4 0-.5.3-.8.9-.8.9 0 1.8.1 2.6.2h.1c1 .1 1.7.2 2.4.3 1 .1 2 .3 2.9.7.4.2.9.4 1.3.8.3.3.5.7.4 1.1-.1.4-.4.7-.8.8-2.7.9-5.4 1.6-8 2.1-.2 0-.5.1-.7.1 0-.1 0 0-.1 0zm.1-4.9v1c0 1 .1 1.9.2 2.7.1 0 .2 0 .4-.1 2.6-.5 5.2-1.2 7.9-2.1-.3-.3-.6-.5-.9-.6-.8-.3-1.7-.5-2.7-.6-.7-.1-1.4-.2-2.3-.2h-.1c-.9-.1-1.7-.1-2.5-.1zM41 27.2c-.8-.1-1.4-.1-2.1-.2l-.5-.1-4.5-.6-.5-.1c-.4-.1-.7-.1-1.1-.2-.5-.1-.8-.3-.9-.8-.1-.2-.1-.7.4-1.2.1 0 .1-.1.2-.1.5-.3 1-.6 1.6-.9 1.1-.5 2.2-.7 3.2-1 1.1-.3 2.3-.6 3.5-.8h.3c.5-.1.8.2.9.6.1.3.1.8.2 1.3.1.6.1 1.3.1 1.9 0 .5 0 1-.1 1.4 0 .5-.2.8-.7.8zm-.3-.9h.5-.5zM32.6 25s.1 0 0 0c.4.1.7.1 1.1.2l.5.1 4.5.6.5.1c.5.1 1.1.1 1.6.2v-1c0-.6 0-1.2-.1-1.8 0-.3-.1-.6-.1-.9-1.2.2-2.3.5-3.4.8-1 .3-2.1.5-3.1 1-.5.2-1 .5-1.3.7-.1-.1-.1-.1-.2 0 .1-.1 0-.1 0 0zm-14-3.2h-.2c-1.1-.1-2.1-.4-2.8-.6-1.7-.6-3.4-1.3-5.3-2.2 0 0-.1 0-.1-.1-.4-.2-.6-.6-.4-1.1.3-.7.7-1.4 1.1-2 .4-.6.8-1.2 1.3-1.8.1-.1.3-.3.6-.3s.5.2.6.3c1.4 1.3 2.7 2.5 4.3 4.1l1.1 1.1.7.7c.2.2.4.5.4.8 0 .5-.4 1-.9 1.1h-.4zm-7.7-3.7c1.9.8 3.4 1.5 5.1 2.1 1 .4 1.8.5 2.5.6H18.8l-.8-.9-1.1-1.1c-1.5-1.4-2.7-2.7-4-3.8-.4.5-.8 1-1.1 1.4-.3.6-.6 1.1-.9 1.7zm-.6 0l.5.2-.5-.2zM31 21.6h-.4c-.5 0-.8-.3-1-.6-.1-.3-.2-.7.1-1.1.9-1.2 1.7-2.2 2.4-3.2 1.1-1.4 2-2.4 2.9-3.4l.3-.3c.4-.4.8-.4 1.1 0 .6.5 1.1 1.1 1.5 1.7.5.6.9 1.3 1.3 1.9.2.4.1.8-.2 1.1-1.9 1.3-3.7 2.4-5.6 3.3-.5.2-1.2.5-1.9.7 0-.1-.2-.1-.5-.1zm-.3-1.1h.3c.2 0 .4 0 .6-.1.6-.1 1.2-.4 1.6-.6 1.8-.9 3.5-1.9 5.3-3.1-.3-.5-.7-1.1-1.1-1.6-.4-.5-.8-.9-1.2-1.4l-.1.1c-.9.9-1.8 2-2.9 3.4-.9 1-1.7 2.1-2.5 3.3-.1 0-.1 0 0 0zm-8.3-1.1c-.3 0-.6-.1-.9-.5l-.4-.5c-.3-.4-.5-.7-.7-1.1-1.4-2-2.6-3.9-3.6-5.7-.1-.1-.1-.2-.1-.3-.2-.4-.1-.8.4-1.1.8-.4 1.6-.8 2.3-1 .6-.2 1.2-.4 1.9-.6.5-.1.9.1 1 .6.3 1.2.6 2.3.8 3.2.3 1.2.4 2.1.6 2.9.1.5.1 1 .1 1.4 0 .7-.1 1.3-.3 1.9-.2.5-.6.7-.9.7-.1.1-.2.1-.2.1zm-4.6-8.3c1 1.8 2.1 3.6 3.5 5.6.2.4.5.7.7 1l.4.5v-.1c.2-.4.3-.9.2-1.4 0-.4 0-.8-.1-1.3-.1-.8-.3-1.7-.5-2.9-.2-.8-.4-1.9-.7-2.9-.6.1-1.1.3-1.6.5-.6.3-1.3.6-1.9 1zm9.5 7.8c-.5 0-.9-.3-1-.7-.2-.5-.3-.9-.3-1.3-.1-.8-.1-1.6-.1-2.2 0-1 .1-2.2.2-3.2v-.4c0-.6.1-1.2.2-1.8V9c.1-.4.4-.7.9-.6 1.5.2 3 .6 4.3 1.2.1.1.4.2.5.5.1.3 0 .6-.1.7-.6 1.3-1.2 2.5-1.7 3.7-.6 1.3-1.3 2.6-1.9 3.9-.1 0-.4.5-1 .5zm0-9.5c-.1.6-.1 1.1-.2 1.7v.4c-.1 1-.2 2.1-.2 3.1 0 .9 0 1.5.1 2.1 0 .3.1.7.3 1.1v-.1c.6-1.3 1.3-2.6 1.9-3.9.5-1.1 1.1-2.3 1.6-3.4-1.1-.5-2.3-.8-3.5-1z"/></svg>