<?xml version="1.0" encoding="utf-8"?>
<!-- Generator: Adobe Illustrator 21.0.0, SVG Export Plug-In . SVG Version: 6.00 Build 0)  -->
<svg version="1.1" id="Layer_1" xmlns="http://www.w3.org/2000/svg" xmlns:xlink="http://www.w3.org/1999/xlink" x="0px" y="0px"
	 viewBox="0 0 80 50" style="enable-background:new 0 0 80 50;" xml:space="preserve">
<style type="text/css">
	.st0{fill:#666666;}
	.st1{fill:#CCCCCC;}
</style>
<path class="st0" d="M33.3,38.8l-0.4-0.3C19.1,29.4,4.7,27.1,4.6,27.1l-2.1-0.3l1.8-1.1c18.8-12,36.5-14.4,36.7-14.4h0.2
	c20.7,1.3,34.2,12.1,34.3,12.2l2.1,1.7l-2.7-0.3c-15.9-2-41,13.4-41.2,13.6L33.3,38.8z M6.8,25.9c4.4,1,15.6,3.9,26.5,11
	c3.3-2,23.5-13.8,38.7-13.8h0.2c-4.5-3-15.8-9.3-31.1-10.3C39.9,13,24.1,15.4,6.8,25.9z"/>
<path class="st1" d="M14.6,24.7c0,0,8.6-5.8,26.8-9.9c0,0,11.6,0.8,21.8,6.2c0,0-15.7,2.6-30,11.6C33.1,32.6,26,27.8,14.6,24.7z"/>
</svg>
