<?xml version="1.0" encoding="utf-8"?>
<!-- Generator: Adobe Illustrator 21.0.0, SVG Export Plug-In . SVG Version: 6.00 Build 0)  -->
<svg version="1.1" id="Layer_1" xmlns="http://www.w3.org/2000/svg" xmlns:xlink="http://www.w3.org/1999/xlink" x="0px" y="0px"
	 viewBox="0 0 50 50" style="enable-background:new 0 0 50 50;" xml:space="preserve">
<style type="text/css">
	.st0{fill:#666666;}
	.st1{fill:#CCCCCC;}
	.st2{fill:#008DFF;}
</style>
<path class="st0" d="M25,45C14,45,5,36,5,25S14,5,25,5s20,9,20,20S36,45,25,45z M25,6.6C14.9,6.6,6.6,14.9,6.6,25S14.8,43.4,25,43.4
	c10.1,0,18.4-8.2,18.4-18.4C43.4,14.9,35.1,6.6,25,6.6z M22.8,40.7l-1.1-0.2c-3.7-0.8-6.7-2.6-6.8-2.7C10.6,35,9.6,30,9.5,29.3
	c-0.5-1.8-0.1-2.6,0.3-2.9c0.5-0.5,1.3-0.4,1.4-0.4h0.1l4.7,2.3c1.8,0.6,3,2.1,3.1,2.1v0.1l2.2,3.2c1.1,1.5,1.1,2.8,1.1,3.2
	L22.8,40.7z M15.7,36.4c0.1,0.1,2.3,1.4,5.2,2.2L20.8,37v-0.1c0,0,0-1-0.8-2.2l-2.2-3.1c-0.1-0.2-1.1-1.2-2.3-1.6h-0.1L11,27.8
	c0,0.2,0,0.6,0.2,1.2v0.1C11.2,29.1,11.9,33.9,15.7,36.4z M27.2,40.7l0.4-3.8c0-0.4,0-1.7,1.1-3.2l2.3-3.2c0.1-0.1,1.3-1.6,3.1-2.1
	l4.7-2.3h0.1c0.2,0,0.9-0.1,1.4,0.4c0.4,0.3,0.8,1.1,0.3,2.9c-0.1,0.6-1,5.7-5.3,8.4c-0.3,0.2-2.7,1.8-6.8,2.7
	C28.5,40.5,27.2,40.7,27.2,40.7z M32.2,31.5L30,34.7c-0.8,1.2-0.8,2.2-0.8,2.2v0.2l-0.1,1.6c3.3-0.9,5.1-2.2,5.1-2.2
	c3.9-2.4,4.6-7.3,4.6-7.3v-0.1C39,28.4,39,28,39,27.9l-4.5,2.2C33.3,30.3,32.4,31.4,32.2,31.5z M38.2,23.3c-0.3,0-0.6,0-1-0.1h-0.1
	L37,23c-0.9-0.6-3.5-2.1-4.7-2.5h-0.1c0,0-3.3-1.2-7.3-1.2s-7.3,1.2-7.3,1.2h-0.1c-1.2,0.4-3.8,1.9-4.7,2.5l-0.1,0.1h-0.1
	c-1.6,0.4-2.5-0.2-2.9-0.7C9,21.5,9.2,20.2,9.2,20c0.3-1.7,2.4-3,2.6-3.1h0.1c0.5-0.2,0.7-0.5,0.7-0.5s0.1-0.2,0.1-0.3
	c0.1-0.8,0.3-1.3,0.5-1.5c2.6-5.4,10.2-5.5,11.7-5.5c0.9,0,8.8,0,11.7,5.5c0.1,0.2,0.4,0.7,0.5,1.5c0,0.1,0,0.3,0.1,0.3
	c0,0,0.2,0.2,0.7,0.5H38c0.2,0.1,2.3,1.4,2.6,3.1c0,0.1,0.3,1.5-0.5,2.4C39.8,22.8,39.2,23.3,38.2,23.3z M11.2,21.5
	c0,0,0.3,0.3,1,0.1c0.6-0.4,3.4-2.1,4.9-2.6c0.4-0.1,3.7-1.3,7.9-1.3c4.1,0,7.5,1.2,7.9,1.3c1.5,0.5,4.3,2.2,4.9,2.6
	c0.8,0.2,1-0.1,1-0.1c0.2-0.3,0.2-0.8,0.2-1.1c-0.1-0.7-1.2-1.6-1.8-2c-0.7-0.4-1.1-0.7-1.1-0.7c-0.5-0.5-0.5-1.2-0.6-1.4
	c0-0.4-0.2-0.7-0.2-0.8c-2.5-4.7-9.9-4.6-10.3-4.6h-0.1c-1.3,0-8,0-10.2,4.6l-0.1,0.1c0,0-0.2,0.3-0.2,0.8c0,0.1-0.1,0.9-0.6,1.4
	c0,0-0.4,0.4-1.1,0.7c-0.6,0.4-1.7,1.3-1.8,2C10.9,20.7,10.9,21.2,11.2,21.5z"/>
<path class="st1" d="M25,33.2l1.5-8.7c1.5,0,1.9,0.2,2,0.8c0,0,1-0.4,1.5-1.1c-1.9-0.9-3.9-0.9-3.9-0.9L25,24.7l-1.1-1.4
	c0,0-1.9,0-3.9,0.9c0.5,0.7,1.5,1.1,1.5,1.1c0.1-0.7,0.5-0.8,2-0.8L25,33.2z"/>
<path class="st1" d="M25,22.9c1.6,0,3.3,0.2,5.2,1l0.3-0.6c-2-0.8-3.9-1.1-5.5-1.1s-3.5,0.3-5.5,1.1l0.3,0.6
	C21.7,23.2,23.4,22.9,25,22.9z"/>
<path class="st2" d="M25,3c12.1,0,22,9.9,22,22s-9.9,22-22,22S3,37.1,3,25S12.9,3,25,3 M25,1C11.7,1,1,11.7,1,25s10.7,24,24,24
	s24-10.7,24-24S38.3,1,25,1L25,1z"/>
</svg>
