<svg id="Layer_1" xmlns="http://www.w3.org/2000/svg" viewBox="0 0 30 30"><style>.st0{fill-rule:evenodd;clip-rule:evenodd;}</style><path class="st0" d="M26.1 28H3.9c-1 0-1.9-.8-1.9-1.9V6.6c0-1 .8-1.9 1.9-1.9h1.9v.9c0 1.5 1.2 2.8 2.8 2.8 1.5 0 2.8-1.2 2.8-2.8v-.8h7.4v.9c0 1.5 1.2 2.8 2.8 2.8 1.5 0 2.8-1.2 2.8-2.8v-.9h1.9c1 0 1.9.8 1.9 1.9v19.5c-.2 1-1 1.8-2.1 1.8zm0-16.7H3.9v14.9h22.3V11.3h-.1zm-4.6-3.7c-1 0-1.8-.8-1.8-1.8v-2c0-1 .8-1.8 1.8-1.8s1.8.8 1.8 1.8v1.9c0 1.1-.8 1.9-1.8 1.9zm-13 0c-1 0-1.8-.8-1.8-1.8v-2c0-1 .8-1.8 1.8-1.8s1.8.8 1.8 1.8v1.9c0 1.1-.8 1.9-1.8 1.9z"/></svg>