<svg id="Layer_1" xmlns="http://www.w3.org/2000/svg" viewBox="0 0 50 50"><style>.st0{fill:#5B5B5B;} .st1{fill:#FFFFFF;} .st2{fill:#CCCCCC;} .st3{fill:#666666;}</style><path class="st0" d="M10.9 42.3c-.9 4.5 4.6 6 6.1 6h16.1c1.4 0 6.9-1.5 6.1-6"/><path class="st1" d="M39.1 40.1c-.9-4.5-6.8-4.6-6.8-4.6H17.7s-5.9.1-6.8 4.6c-.9 4.5 4.6 6 6.1 6h16.1c1.3-.1 6.8-1.5 6-6z"/><path class="st2" d="M30.1 9.3V27c0 .9-.8 1.6-1.9 1.6h-6.4c-1 0-1.9-.7-1.9-1.6V9.3M30.5 37.7c-.8-1.5-1.9-1.1-1.9-1.1h-7.1s-1.1-.3-1.9 1.1c-.6 1-2.5 4.6-3.5 6.6.4.1.8.1 1 .1h16.1c.2 0 .6 0 1-.1-1.3-2-3.2-5.6-3.7-6.6z"/><path class="st3" d="M32.2 33.5H17.8c-1.7 0-2.6-1.7-3.4-4.3-.9-2.8-.5-6.9-.5-7v-.1c.1-.4 1.7-10.1 2-11.6.4-1.7 1.7-2.1 2.4-2.1h13.4c.7-.1 2.1.3 2.4 2.1.3 1.5 1.9 11.2 2 11.6v.1c0 .2.4 4.2-.5 7-.8 2.6-1.7 4.3-3.4 4.3zM15.5 22.4c0 .4-.3 4 .4 6.4.9 2.8 1.5 3.1 1.8 3.1h14.4c.4 0 1-.3 1.8-3.1.7-2.4.5-6 .4-6.4-.1-.6-1.7-10.1-2-11.5-.1-.7-.5-.7-.7-.7H17.9c-.2 0-.5.1-.7.7 0 1.4-1.6 10.9-1.7 11.5z"/><path class="st3" d="M28.3 8.8h-6.5c-1.4 0-2.6-1.2-2.6-2.6V4.3c0-1.4 1.2-2.6 2.6-2.6h6.5c1.4 0 2.6 1.2 2.6 2.6v1.9c0 1.4-1.2 2.6-2.6 2.6zm-6.6-5.4c-.5 0-.9.4-.9.9v1.9c0 .5.4.9.9.9h6.5c.5 0 .9-.4.9-.9V4.3c0-.5-.4-.9-.9-.9h-6.5zM33 45.3H17c-1.2 0-4.2-.8-5.8-2.7-1-1.2-1.3-2.6-1-4.2 1-5.1 7.3-5.3 7.6-5.3h14.6c.3 0 6.6.2 7.6 5.3.3 1.6-.1 3-1 4.2-1.7 1.9-4.7 2.7-6 2.7zM17.7 34.7c-.2 0-5.2.2-5.9 4-.2 1.1 0 2 .7 2.8 1.3 1.5 3.7 2.1 4.6 2.1h16c.8 0 3.3-.6 4.6-2.1.7-.8.9-1.7.7-2.8-.7-3.8-5.8-4-6-4H17.7z"/></svg>