<svg xmlns="http://www.w3.org/2000/svg" viewBox="0 0 231.8 32.69"><path fill="#ec1c24" d="M2,31.27a1,1,0,0,1-1-1V29.6a1,1,0,0,1,1-1A13.3,13.3,0,0,0,8.23,27a1.28,1.28,0,0,0,.49-.85,83.85,83.85,0,0,0,.52-10.36,1,1,0,0,1,.23-.74.94.94,0,0,1,.72-.31H35.93c2.23,0,13.33-.26,13.33-5.49,0-5.71-15-5.77-15.69-5.77H4.77a1.39,1.39,0,0,1-.68-.19,6.49,6.49,0,0,0-2.67-.74.9.9,0,0,1-.85-.86V1.48A.78.78,0,0,1,.78.92.85.85,0,0,1,1.44.65L34,.58A98.21,98.21,0,0,1,49.22,1.76c8.4,1.45,12.66,4.08,12.66,7.81,0,8.21-21.18,9.16-37.11,9.16H23.13c-.23,0-1,.13-1,1.31,0,1.86.24,5.41.24,5.45a5.16,5.16,0,0,0,.13,1.05C23,27.26,24.69,27.7,26,28a41.93,41.93,0,0,0,6.37.64h0a1,1,0,0,1,1,1c0,.42,0,.58,0,.59a1.05,1.05,0,0,1-.26.76,1,1,0,0,1-.75.31Z"/><path fill="#d0d2d3" d="M34,1.15c4,0,27.33.34,27.33,8.42,0,8.37-25.63,8.59-36.54,8.59H23.13a1.65,1.65,0,0,0-1.57,1.9c0,1.89.24,5.47.24,5.47a4.79,4.79,0,0,0,.21,1.3c.16.23.58,1.07,3.93,1.69a42,42,0,0,0,6.47.65h0a.4.4,0,0,1,.43.44c0,.48,0,.63,0,.63a.41.41,0,0,1-.43.45H2a.41.41,0,0,1-.4-.42V29.6A.44.44,0,0,1,2,29.17c.41,0,4.2-.1,6.56-1.65a1.86,1.86,0,0,0,.75-1.26,84.27,84.27,0,0,0,.52-10.43s-.06-.47.38-.47H35.93c2.82,0,13.9-.36,13.9-6.06C49.83,3.11,35.11,3,33.57,3H4.77a.83.83,0,0,1-.4-.11A6.84,6.84,0,0,0,1.49,2s-.34,0-.34-.29V1.48s0-.25.29-.25l32-.07H34M34,0H33.4L1.44.07A1.44,1.44,0,0,0,.35.54a1.39,1.39,0,0,0-.35,1v.24A1.46,1.46,0,0,0,1.37,3.18a6,6,0,0,1,2.38.64l.06,0a2,2,0,0,0,1,.26h28.8c6.07,0,15.11,1.38,15.11,5.2,0,4.77-11.45,4.91-12.75,4.91H10.19A1.5,1.5,0,0,0,9,14.71a1.62,1.62,0,0,0-.38,1.16,83,83,0,0,1-.51,10.24.74.74,0,0,1-.23.44A12.68,12.68,0,0,1,2,28,1.57,1.57,0,0,0,.41,29.55v.72a1.54,1.54,0,0,0,1.51,1.57H32.43a1.57,1.57,0,0,0,1.17-.49A1.63,1.63,0,0,0,34,30.15h0s0-.15,0-.54A1.55,1.55,0,0,0,32.43,28h0a41.36,41.36,0,0,1-6.23-.63c-1.9-.35-2.84-.79-3.11-1.1a7.18,7.18,0,0,1-.08-.81s-.21-3.59-.24-5.44a.93.93,0,0,1,.14-.6.58.58,0,0,1,.28-.13h1.63c17.55,0,37.69-1.11,37.69-9.74C62.46.69,40.66,0,34,0Z"/><path fill="#ec1c24" d="M201,32.12H172V28.3h.58a5.27,5.27,0,0,0,4-1.36,4.19,4.19,0,0,0,1.08-2.81V13.31H189.1V24.52c0,2.91,2.11,3.32,2.19,3.34a63.71,63.71,0,0,0,6.4.32c6.34,0,21.09-1,21.09-10.74,0-9.11-19.64-9.81-25.66-9.81-1.21,0-1.94,0-1.95,0H173.64v-4H191l1,0c.91,0,2.25,0,3.88,0,13.19,0,35.31,1.8,35.31,13.83C231.22,31.41,206,32.12,201,32.12Z"/><path fill="#d0d2d3" d="M195.92,4.16c10.81,0,34.73,1.13,34.73,13.25,0,13.49-25,14.13-29.66,14.13H172.57V28.87c5.86,0,5.61-4.77,5.61-4.77V13.89h10.34V24.52c0,3.47,2.67,3.9,2.67,3.9a64.06,64.06,0,0,0,6.49.33c9.58,0,21.66-2.14,21.66-11.31C219.35,7.82,199.52,7,193.11,7c-1.23,0-2,0-2,0H174.22V4.22H191c.66,0,2.44-.06,4.91-.06m0-1.15c-1.64,0-3,0-3.89,0l-1,0H173.06V8.23h18.08c.05,0,.78,0,2,0,4.19,0,25.09.45,25.09,9.24,0,9.17-14.34,10.16-20.51,10.16a62.85,62.85,0,0,1-6.33-.32c-.31-.07-1.69-.5-1.69-2.76V12.74H177V24.17a3.62,3.62,0,0,1-.93,2.39,4.74,4.74,0,0,1-3.54,1.17h-1.15v5H201c5.14,0,30.81-.74,30.81-15.28,0-6.57-6.23-14.4-35.88-14.4Z"/><path fill="#bbbdbf" d="M103.93,3.81H84.69c-6.16,0-13.35,3.25-13.35,9,0,6.56,7.25,9,13.69,9h21.18a.81.81,0,0,1,.81.92c-.51,3.24-4,4.2-8.48,4.2H76.82c-.9,0-1.15.67-1.27,1.54l-.31,2.25a1.22,1.22,0,0,0,1.22,1.22H99.7c6.62,0,16.11-3.3,16.86-14.61C117,10.44,112.76,3.81,103.93,3.81Zm-3.83,14.5H88.19c-4,0-8.43-1.49-8.43-5.52,0-3.52,4-5.52,7.76-5.52h12.93c4.22,0,6.57,2.51,7,5.52C108.21,17.83,106,18.31,100.1,18.31Z"/><path fill="#bbbdbf" d="M149.85,3.87c-14,0-12.27,0-12.27,0S121.64,2.9,120.1,14l-.54,5.76s-.76,7.34,5.29,10.18c0,0,3.35,1.91,9.89,1.91h13.89s13.78.32,14.5-10.61l.36-6.94S163.84,3.87,149.85,3.87Zm4.21,17.74c-.65,7.48-8.56,7.12-8.56,7.12s-1.8.18-10.18-.07-6.91-10.14-6.91-10.14l.29-3c.79-9,8.67-8.31,8.67-8.31s-.76-.11,8.92-.11S154.72,14,154.06,21.6Z"/></svg>